<svg aria-hidden="true" xmlns="http://www.w3.org/2000/svg"><symbol id="icon-ai-image" viewBox="0 0 1024 1024"><path d="M338.5856 262.1952l-288.3584 506.88c-29.3888 51.6096 7.936 115.7632 67.328 115.7632H694.272c59.392 0 96.7168-64.1024 67.328-115.7632l-288.3584-506.88c-29.696-52.224-104.96-52.224-134.656 0z" fill="#4BE2AC" ></path><path d="M748.9536 547.1232l-153.9072 270.5408c-17.0496 29.952 4.608 67.1744 39.0656 67.1744h307.8144c34.4576 0 56.1152-37.2224 39.0656-67.1744l-153.9072-270.5408c-17.2544-30.3104-60.928-30.3104-78.1312 0z" fill="#4BE2AC" ></path><path d="M759.9104 766.1568l-67.7888-119.1936-96.1024 168.96c-17.408 30.6176 4.352 68.864 39.168 68.864h57.2416c60.0064 0.0512 97.4848-65.8944 67.4816-118.6304z" fill="#06CC76" ></path><path d="M707.5328 294.7584a82.5856 81.3568 90 1 0 162.7136 0 82.5856 81.3568 90 1 0-162.7136 0Z" fill="#4BE2AC" ></path><path d="M217.7024 771.9424c-6.7584 0-13.568-1.6896-19.8656-5.1712-19.7632-11.008-26.88-35.9424-15.872-55.7056l95.5904-171.7248c11.008-19.7632 35.9424-26.88 55.7056-15.872 19.7632 11.008 26.88 35.9424 15.872 55.7056l-95.5904 171.7248a40.92928 40.92928 0 0 1-35.84 21.0432z" fill="#FFFFFF" ></path></symbol><symbol id="icon-ai-chat" viewBox="0 0 1024 1024"><path d="M496 177.6c33.6-22.4 57.6-35.2 75.2-35.2 0 0-17.6 8-40 28.8-1.6 1.6 32-6.4 49.6-3.2 1.6 0-11.2 3.2-20.8 8 0 0-1.6 0-1.6 1.6 32 3.2 64 9.6 94.4 19.2 22.4-22.4 48-38.4 76.8-49.6 46.4-19.2 92.8-19.2 99.2-16 6.4 3.2 22.4 64 24 97.6 1.6 19.2-1.6 44.8-8 76.8 11.2 9.6 24 19.2 35.2 30.4 124.8 108.8 140.8 220.8 140.8 286.4s-91.2 144-203.2 193.6c-75.2 32-180.8 52.8-316.8 60.8-139.2-9.6-243.2-30.4-315.2-60.8C80 769.6 12.8 678.4 8 620.8s0-171.2 131.2-286.4c17.6-16 35.2-28.8 51.2-41.6-4.8-27.2-8-48-6.4-64 1.6-33.6 17.6-94.4 24-97.6 6.4-3.2 52.8-3.2 99.2 16 27.2 11.2 51.2 25.6 72 46.4 40-9.6 76.8-14.4 116.8-16z" fill="#D8D5EA" ></path><path d="M702.4 209.6c19.2 8 35.2 16 48 24 12.8 8 30.4 19.2 51.2 33.6 1.6-11.2 1.6-22.4 0-33.6-1.6-17.6-12.8-48-16-49.6-3.2-1.6-28.8-3.2-52.8 8-16 6.4-25.6 12.8-30.4 17.6zM331.2 208c-19.2 6.4-35.2 12.8-48 20.8-12.8 6.4-27.2 17.6-44.8 32-6.4-14.4-8-27.2-6.4-41.6 3.2-19.2 14.4-38.4 19.2-40 3.2-1.6 28.8 0 54.4 11.2 16 6.4 24 12.8 25.6 17.6z" fill="#FFD24C" ></path><path d="M121.6 600c3.2 44.8 56 115.2 139.2 150.4s171.2 46.4 246.4 46.4 169.6-16 248-48 153.6-75.2 158.4-150.4-28.8-147.2-107.2-219.2S624 256 516.8 256 316.8 291.2 224 377.6 118.4 555.2 121.6 600z" fill="#1F2066" ></path><path d="M441.6 592v-38.4c0-41.6 33.6-75.2 75.2-75.2S592 512 592 553.6v36.8h32v-36.8a107.2 107.2 0 0 0-214.4 0V592h32z m0 0v-38.4c0-41.6 33.6-75.2 75.2-75.2S592 512 592 553.6v36.8h32v-36.8a107.2 107.2 0 0 0-214.4 0V592h32z" fill="#00F0FF" ></path><path d="M425.6 590.4m-16 0a16 16 0 1 0 32 0 16 16 0 1 0-32 0Z" fill="#6BEDFF" ></path><path d="M608 592m-16 0a16 16 0 1 0 32 0 16 16 0 1 0-32 0Z" fill="#6BEDFF" ></path><path d="M707.2 612.8a30.4 16 0 1 0 60.8 0 30.4 16 0 1 0-60.8 0Z" fill="#FFB95C" ></path><path d="M267.2 612.8a30.4 16 0 1 0 60.8 0 30.4 16 0 1 0-60.8 0Z" fill="#FFB95C" ></path></symbol><symbol id="icon-menu" viewBox="0 0 1305 1024"><path d="M0.837818 75.218317c0 19.642164 8.098902 39.191237 21.969435 53.06177 13.963624 13.963624 33.512697 22.062525 53.247951 22.062525a76.055204 76.055204 0 0 0 53.06177-21.969434c13.963624-13.963624 22.062525-33.512697 22.062526-53.154861A76.055204 76.055204 0 0 0 129.303156 21.970365 76.055204 76.055204 0 0 0 76.055204 0.000931a76.055204 76.055204 0 0 0-53.247951 21.969434A76.706839 76.706839 0 0 0 0.837818 75.218317M0.837818 476.160498c0 19.642164 8.005811 39.377419 21.969435 53.247952 13.963624 13.963624 33.419606 21.969435 53.247951 21.969434a76.241385 76.241385 0 0 0 53.154861-21.969434 75.962113 75.962113 0 0 0 21.969435-53.247952 76.241385 76.241385 0 0 0-21.969435-53.154861 75.962113 75.962113 0 0 0-53.154861-21.969434 76.241385 76.241385 0 0 0-53.247951 21.969434 75.962113 75.962113 0 0 0-21.969435 53.154861M0.837818 877.19577c0 19.642164 8.005811 39.284328 21.969435 53.247951 13.963624 13.963624 33.419606 21.969435 53.247951 21.969435a76.241385 76.241385 0 0 0 53.154861-21.969435 75.962113 75.962113 0 0 0 21.969435-53.247951 76.241385 76.241385 0 0 0-21.969435-53.247952 75.962113 75.962113 0 0 0-53.154861-21.969434 76.241385 76.241385 0 0 0-53.247951 21.969434 76.520658 76.520658 0 0 0-21.969435 53.247952M1304.109361 75.218317c0 41.518508-32.395607 75.124295-72.331571 75.124295H373.945843c-40.029055 0-72.331571-33.512697-72.331571-75.124295C301.521181 33.513628 333.916788 0.000931 373.945843 0.000931h857.831947c40.029055 0 72.331571 33.605788 72.331571 75.217386M1231.77779 551.377884H373.945843c-40.029055 0-72.331571-33.605788-72.331571-75.217386 0-41.518508 32.302516-75.124295 72.331571-75.124295h857.831947c40.029055-0.186182 72.331571 33.512697 72.331571 75.124295 0 41.425417-32.395607 75.217386-72.331571 75.217386zM1304.109361 877.102679c0 41.611599-32.395607 75.310477-72.331571 75.310477H373.945843c-40.029055 0-72.331571-33.698878-72.331571-75.310477 0-41.425417 32.302516-75.124295 72.331571-75.124295h857.831947c40.029055-0.093091 72.331571 33.698878 72.331571 75.124295"  ></path></symbol><symbol id="icon-ai" viewBox="0 0 1024 1024"><path d="M196.1 989.7c-9.1 0-17.6-3.5-24-9.9-6.3-6.3-9.9-15-9.9-24v-236c0-1.9-1.4-3.5-3.3-3.8-39.1-5.1-108.4-19.7-133.7-60.7-12.4-20.1-13.5-44.2-3.1-67.7 27.2-61.2 72.5-105.4 97-126.2 0.7-0.6 1.2-1.5 1.3-2.4 8.9-71.3 71.3-426.8 428.7-426.8 194.6 0 351.9 88.1 420.8 235.5 73.4 157.3 30.3 352.4-118.3 535.4-0.6 0.7-0.8 1.5-0.8 2.4V950c0 18.7-15.2 33.9-33.9 33.9S783 968.7 783 950V791.8c0-8 2.8-15.7 7.9-21.8C929.1 604.9 972 432.1 908.6 296.2c-57.5-123-191.8-196.4-359.4-196.4-336.2 0-361.8 364.6-362.8 380.1-0.7 10.1-5.7 19.4-13.9 25.4-6.3 4.8-60.7 47.3-88.4 109.7-0.4 1-0.4 2.1 0 3 7.1 16.8 65.6 31.1 113.6 33.5 18.1 0.9 32.2 15.7 32.3 33.8V918c0 2.1 1.7 3.8 3.8 3.8h189.3c18.7 0 33.9 15.2 33.9 33.9s-15.2 33.9-33.9 33.9h-227z"  ></path><path d="M583.9 687.3c-14.3 0-27.1-9-31.9-22.4l-21.3-62.3c-0.5-1.5-2-2.6-3.6-2.6H415.2c-1.6 0-3.1 1-3.6 2.5L389 665.4c-5.1 12.8-17.5 21.1-31.4 21.1-3.9 0-7.8-0.7-11.5-2-17.2-6.2-26.4-24.7-20.8-42.2l116.3-323.6c4.8-13.4 17.6-22.4 31.9-22.4 14.6 0.1 27.4 9.3 32 22.9l110.7 323.7c5.7 17.4-3.9 36.6-21.3 42.5-3.6 1.3-7.2 1.9-11 1.9z m-111.4-247c-1.6 0-3.1 1-3.6 2.5L438.7 527c-0.4 1.2-0.2 2.5 0.5 3.5s1.9 1.6 3.1 1.6h59c1.2 0 2.4-0.6 3.1-1.6 0.7-1 0.9-2.3 0.5-3.5l-28.8-84.2c-0.5-1.5-1.9-2.5-3.6-2.5z m225 244.5c-18.7 0-33.9-14.7-33.9-32.7V329.3c0-18 15.2-32.7 33.9-32.7s33.9 14.7 33.9 32.7v322.9c-0.1 18-15.3 32.6-33.9 32.6z"  ></path></symbol><symbol id="icon-unfold" viewBox="0 0 1024 1024"><path d="M985.6 51.2h-947.2a38.4 38.4 0 0 0 0 76.8h947.2a38.4 38.4 0 0 0 0-76.8z m-460.8 281.6h-486.4a38.4 38.4 0 0 0 0 76.8h486.4a38.4 38.4 0 0 0 0-76.8z m0 281.6h-486.4a38.4 38.4 0 0 0 0 76.8h486.4a38.4 38.4 0 0 0 0-76.8z m460.8 281.6h-947.2a38.4 38.4 0 0 0 0 76.8h947.2a38.4 38.4 0 0 0 0-76.8z m18.2016-406.8864l-275.5584-137.7792a25.6 25.6 0 0 0-37.0432 22.8864v275.5584a25.6 25.6 0 0 0 37.0432 22.8864l275.5584-137.7792a25.6 25.6 0 0 0 0-45.7728z"  ></path></symbol><symbol id="icon-fold" viewBox="0 0 1024 1024"><path d="M0 51.2m38.4 0l947.2 0q38.4 0 38.4 38.4l0 0q0 38.4-38.4 38.4l-947.2 0q-38.4 0-38.4-38.4l0 0q0-38.4 38.4-38.4Z"  ></path><path d="M460.8 332.8m38.4 0l486.4 0q38.4 0 38.4 38.4l0 0q0 38.4-38.4 38.4l-486.4 0q-38.4 0-38.4-38.4l0 0q0-38.4 38.4-38.4Z"  ></path><path d="M460.8 614.4m38.4 0l486.4 0q38.4 0 38.4 38.4l0 0q0 38.4-38.4 38.4l-486.4 0q-38.4 0-38.4-38.4l0 0q0-38.4 38.4-38.4Z"  ></path><path d="M0 896m38.4 0l947.2 0q38.4 0 38.4 38.4l0 0q0 38.4-38.4 38.4l-947.2 0q-38.4 0-38.4-38.4l0 0q0-38.4 38.4-38.4Z"  ></path><path d="M20.1984 489.1136l275.5584-137.7792a25.6 25.6 0 0 1 37.0432 22.8864v275.5584a25.6 25.6 0 0 1-37.0432 22.8864L20.1984 534.8864a25.6 25.6 0 0 1 0-45.7728z"  ></path></symbol><symbol id="icon-stop" viewBox="0 0 1024 1024"><path d="M102.4 0h819.2Q1024 0 1024 102.4v819.2q0 102.4-102.4 102.4H102.4Q0 1024 0 921.6V102.4Q0 0 102.4 0z"  ></path></symbol><symbol id="icon-close" viewBox="0 0 1024 1024"><path d="M512.001 15.678C237.414 15.678 14.82 238.273 14.82 512.86S237.414 1010.04 512 1010.04s497.18-222.593 497.18-497.18S786.589 15.678 512.002 15.678z m213.211 645.937c17.798 17.803 17.798 46.657 0 64.456-17.798 17.797-46.658 17.797-64.456 0L512.001 577.315 363.241 726.07c-17.799 17.797-46.652 17.797-64.45 0-17.804-17.799-17.804-46.653 0-64.456L447.545 512.86 298.79 364.104c-17.803-17.798-17.803-46.657 0-64.455 17.799-17.798 46.652-17.798 64.45 0l148.761 148.755 148.755-148.755c17.798-17.798 46.658-17.798 64.456 0 17.798 17.798 17.798 46.657 0 64.455L576.456 512.86l148.756 148.755z m0 0"  ></path></symbol><symbol id="icon-light" viewBox="0 0 1024 1024"><path d="M504.238316 157.223228c-200.389719 0-362.836788 162.44707-362.836788 362.836788s162.44707 362.836788 362.836788 362.836788c200.389719 0 362.836788-162.448077 362.836788-362.836788S704.628035 157.223228 504.238316 157.223228zM504.238316 831.494926c-172.000764 0-311.43491-139.434146-311.43491-311.43491 0-172.000764 139.434146-311.43491 311.43491-311.43491s311.43491 139.434146 311.43491 311.43491C815.673226 692.06078 676.23908 831.494926 504.238316 831.494926z"  ></path><path d="M529.939256 101.236503c0 13.916807-11.2812 25.196999-25.196999 25.196999l-1.00788 0c-13.915799 0-25.196999-11.280193-25.196999-25.196999L478.537377 41.317031c0-13.915799 11.2812-25.196999 25.196999-25.196999l1.00788 0c13.915799 0 25.196999 11.2812 25.196999 25.196999L529.939256 101.236503z"  ></path><path d="M529.77094 998.803001c0 13.916807-11.2812 25.196999-25.196999 25.196999l-1.00788 0c-13.915799 0-25.196999-11.280193-25.196999-25.196999l0-59.919472c0-13.915799 11.2812-25.196999 25.196999-25.196999l1.00788 0c13.915799 0 25.196999 11.2812 25.196999 25.196999L529.77094 998.803001z"  ></path><path d="M226.234785 205.675041c9.84094 9.84094 9.839932 25.794672 0 35.633596l-0.712571 0.712571c-9.839932 9.839932-25.793664 9.84094-35.633596 0l-42.369258-42.369258c-9.84094-9.839932-9.839932-25.794672 0-35.633596l0.712571-0.712571c9.839932-9.839932 25.793664-9.839932 35.633596 0L226.234785 205.675041z"  ></path><path d="M860.790973 840.470097c9.84094 9.839932 9.84094 25.793664 0 35.633596l-0.712571 0.712571c-9.838924 9.838924-25.793664 9.839932-35.633596 0l-42.369258-42.370266c-9.839932-9.839932-9.839932-25.794672 0-35.633596l0.712571-0.712571c9.839932-9.839932 25.794672-9.839932 35.633596 0L860.790973 840.470097z"  ></path><path d="M85.330142 494.276431c13.916807 0 25.196999 11.2812 25.196999 25.196999l0.001008 1.00788c0 13.915799-11.2812 25.196999-25.198007 25.196999l-59.918464-0.001008c-13.917814 0.002016-25.196999-11.2812-25.196999-25.196999l0-1.00788c0-13.915799 11.280193-25.196999 25.196999-25.196999L85.330142 494.276431z"  ></path><path d="M982.897647 494.445755c13.915799 0 25.196999 11.280193 25.196999 25.196999l0 1.00788c0 13.913783-11.2812 25.196999-25.196999 25.196999L922.977167 545.847633c-13.915799 0-25.196999-11.2812-25.196999-25.196999l0-1.00788c0-13.915799 11.2812-25.196999 25.196999-25.196999L982.897647 494.445755z"  ></path><path d="M189.766664 797.981909c9.84094-9.84094 25.79568-9.838924 35.633596 0l0.714587 0.712571c9.838924 9.838924 9.838924 25.793664-0.002016 35.633596l-42.36825 42.36825c-9.84094 9.842956-25.793664 9.84094-35.633596 0l-0.712571-0.712571c-9.839932-9.839932-9.84094-25.793664 0-35.632588L189.766664 797.981909z"  ></path><path d="M824.562728 163.425721c9.839932-9.839932 25.793664-9.84094 35.633596 0l0.712571 0.712571c9.838924 9.838924 9.839932 25.793664-0.001008 35.633596l-42.370266 42.370266c-9.838924 9.839932-25.793664 9.838924-35.632588 0l-0.712571-0.712571c-9.839932-9.839932-9.839932-25.793664-0.001008-35.633596L824.562728 163.425721z"  ></path></symbol><symbol id="icon-dark" viewBox="0 0 1024 1024"><path d="M512 117.333333c-6.250667 0-12.544 0.149333-18.837333 0.426667a32 32 0 0 0-28.885334 42.197333c10.389333 30.72 15.722667 63.018667 15.722667 96.042667 0 168.405333-139.370667 305.706667-313.130667 309.269333l-7.957333 0.085334a32 32 0 0 0-30.592 39.488C170.730667 780.672 328.682667 906.666667 512 906.666667c217.962667 0 394.666667-176.704 394.666667-394.666667S729.962667 117.333333 512 117.333333z m26.282667 74.090667l-1.813334-9.194667 2.325334 0.170667C708.885333 196.053333 842.666667 338.389333 842.666667 512c0 182.613333-148.053333 330.666667-330.666667 330.666667l-7.296-0.085334a330.944 330.944 0 0 1-301.44-211.861333l-1.344-3.562667 0.768-0.064C394.282667 606.656 544 448.490667 544 256c0-21.824-1.92-43.413333-5.717333-64.576z"  ></path></symbol><symbol id="icon-text" viewBox="0 0 1024 1024"><path d="M846.769231 827.076923a19.692308 19.692308 0 0 1 3.544615 39.069539L846.769231 866.461538h-669.538462a19.692308 19.692308 0 0 1-3.544615-39.069538L177.230769 827.076923h669.538462z m0-118.153846a19.692308 19.692308 0 0 1 3.544615 39.069538L846.769231 748.307692h-669.538462a19.692308 19.692308 0 0 1-3.544615-39.069538L177.230769 708.923077h669.538462z m0-118.153846a19.692308 19.692308 0 0 1 3.544615 39.069538L846.769231 630.153846h-236.307693a19.692308 19.692308 0 0 1-3.544615-39.069538L610.461538 590.769231h236.307693z m-315.076923-374.153846a19.692308 19.692308 0 0 1 19.37723 16.147692L551.384615 236.307692v78.769231a19.692308 19.692308 0 0 1-39.069538 3.544615L512 315.076923V256h-118.153846V590.769231h59.076923a19.692308 19.692308 0 0 1 3.544615 39.069538L452.923077 630.153846h-157.538462a19.692308 19.692308 0 0 1-3.544615-39.069538L295.384615 590.769231H354.461538V256H236.307692v58.761846a19.692308 19.692308 0 0 1-16.147692 19.337846l-3.544615 0.354462a19.692308 19.692308 0 0 1-19.377231-16.147692L196.923077 314.722462V236.307692a19.692308 19.692308 0 0 1 16.147692-19.37723L216.615385 216.615385h315.076923z"  ></path></symbol><symbol id="icon-download" viewBox="0 0 1024 1024"><path d="M768.1 273.6c-52.9-98.8-155.5-162.1-264.6-162.1-129.8 0-245.2 83.6-285.2 204.9C96.9 350.6 6.9 472.7 6.9 606.4c0 162.9 131.8 300.5 287.8 300.5 12.7 0 23-10.3 23-23s-10.3-23-23-23C163.7 860.9 53 744.3 53 606.4 53 488.9 134 382.1 241.5 358l13.4-3 3.7-13.2c30.3-108.4 131-184.2 244.8-184.2 95.5 0 185.2 57.6 228.7 146.8l5.3 10.8 11.9 1.9C876.8 337 973 451.7 973 583.8c0 150.2-121.5 277.1-265.4 277.1-12.7 0-23 10.3-23 23s10.3 23 23 23c168.8 0 311.4-148 311.4-323.2C1019 433.3 911.9 302.1 768.1 273.6z"  ></path><path d="M325.9 683.8l172 198.6c4.8 5.6 11.8 8.7 19.1 8.7 7.3 0 14.3-3.2 19.1-8.7l172-198.6-38.3-33.2L540 800.7 540 465l-51 0 0 330.2L364 650.6 325.9 683.8z"  ></path></symbol><symbol id="icon-send" viewBox="0 0 1024 1024"><path d="M0 1024l106.496-474.112 588.8-36.864-588.8-39.936L0 0l1024 512z"  ></path></symbol><symbol id="icon-refresh" viewBox="0 0 1024 1024"><path d="M853.333333 768.064A426.112 426.112 0 0 1 512 938.666667C276.352 938.666667 85.333333 747.648 85.333333 512S276.352 85.333333 512 85.333333s426.666667 191.018667 426.666667 426.666667a21.333333 21.333333 0 0 1-42.666667 0c0-212.074667-171.925333-384-384-384S128 299.925333 128 512s171.925333 384 384 384a383.573333 383.573333 0 0 0 319.36-170.666667h-84.757333A21.248 21.248 0 0 1 725.333333 704c0-11.776 9.664-21.333333 21.269334-21.333333h128.128c5.866667 0 11.178667 2.346667 15.018666 6.186666l0.021334 0.106667c3.84 3.882667 6.229333 9.173333 6.229333 14.976v128.128c0 11.733333-9.472 21.269333-21.333333 21.269333-11.776 0-21.333333-9.664-21.333334-21.269333v-64z"  ></path></symbol><symbol id="icon-delete" viewBox="0 0 1024 1024"><path d="M106.666667 213.333333h810.666666v42.666667H106.666667z"  ></path><path d="M640 128v42.666667h42.666667V128c0-23.573333-19.093333-42.666667-42.538667-42.666667H383.872A42.496 42.496 0 0 0 341.333333 128v42.666667h42.666667V128h256z"  ></path><path d="M213.333333 896V256H170.666667v639.957333C170.666667 919.552 189.653333 938.666667 213.376 938.666667h597.248C834.218667 938.666667 853.333333 919.68 853.333333 895.957333V256h-42.666666v640H213.333333z"  ></path><path d="M320 341.333333h42.666667v384h-42.666667zM490.666667 341.333333h42.666666v384h-42.666666zM661.333333 341.333333h42.666667v384h-42.666667z"  ></path></symbol><symbol id="icon-image" viewBox="0 0 1070 1024"><path d="M847.058824 867.137255H224.627451c-64 0-115.45098-45.176471-115.45098-101.647059V232.156863c0-56.470588 51.45098-101.647059 115.45098-101.647059h84.078431c10.039216 0 18.823529 8.784314 18.82353 18.823529s-8.784314 18.823529-18.82353 18.82353h-84.078431c-42.666667 0-77.803922 28.862745-77.803922 64V765.490196c0 35.137255 35.137255 64 77.803922 64h622.431373c42.666667 0 77.803922-28.862745 77.803921-64V232.156863c0-35.137255-35.137255-64-77.803921-64h-464.313726c-10.039216 0-18.823529-8.784314-18.823529-18.82353s8.784314-18.823529 18.823529-18.823529h464.313726c64 0 115.45098 45.176471 115.45098 101.647059V765.490196c-1.254902 56.470588-52.705882 101.647059-115.45098 101.647059z"  ></path><path d="M328.784314 455.529412c-23.843137 0-46.431373-8.784314-64-23.843137-20.078431-17.568627-32.627451-41.411765-35.137255-67.764706-5.019608-55.215686 36.392157-104.156863 91.607843-109.176471 26.352941-2.509804 52.705882 6.27451 74.039216 22.588235s32.627451 41.411765 35.137255 67.764706c2.509804 26.352941-6.27451 52.705882-22.588236 74.039216-17.568627 20.078431-41.411765 32.627451-67.764706 35.137255-6.27451 1.254902-8.784314 1.254902-11.294117 1.254902z m-6.27451-163.137255c-35.137255 2.509804-60.235294 33.882353-57.72549 67.764706 1.254902 16.313725 8.784314 31.372549 22.588235 42.666666 12.54902 11.294118 28.862745 16.313725 46.431373 15.058824 16.313725-1.254902 31.372549-8.784314 42.666666-22.588235 11.294118-12.54902 16.313725-28.862745 15.058824-46.431373-1.254902-16.313725-8.784314-31.372549-22.588236-42.666667-12.54902-10.039216-28.862745-15.058824-46.431372-13.803921zM759.215686 642.509804c-5.019608 0-10.039216-1.254902-13.803921-5.019608L609.882353 501.960784c-7.529412-7.529412-20.078431-7.529412-27.607843 0L446.745098 637.490196c-7.529412 7.529412-18.823529 7.529412-26.352941 0s-7.529412-18.823529 0-26.352941l135.529412-135.529412c11.294118-11.294118 25.098039-16.313725 40.156862-16.313725 15.058824 0 30.117647 6.27451 40.156863 16.313725l135.529412 135.529412c7.529412 7.529412 7.529412 18.823529 0 26.352941-2.509804 3.764706-7.529412 5.019608-12.54902 5.019608z"  ></path><path d="M466.823529 692.705882c-5.019608 0-10.039216-1.254902-13.803921-5.019607l-87.843137-87.843138c-1.254902-1.254902-3.764706-1.254902-3.764706-1.254902-1.254902 0-2.509804 0-3.764706 1.254902l-87.843137 87.843138c-7.529412 7.529412-18.823529 7.529412-26.352942 0-7.529412-7.529412-7.529412-18.823529 0-26.352942l87.843138-87.843137c17.568627-17.568627 45.176471-17.568627 61.490196 0l87.843137 87.843137c7.529412 7.529412 7.529412 18.823529 0 26.352942-3.764706 2.509804-8.784314 5.019608-13.803922 5.019607z"  ></path></symbol><symbol id="icon-setting" viewBox="0 0 1024 1024"><path d="M631.296 984.896a51.072 51.072 0 0 1-47.36-31.616l-14.72-35.584a407.04 407.04 0 0 1-114.304-0.128l-14.848 35.712a51.968 51.968 0 0 1-66.88 27.712l-94.592-39.168a51.2 51.2 0 0 1-27.712-66.88l14.784-35.712a404.8 404.8 0 0 1-80.96-80.704l-35.584 14.72a52.032 52.032 0 0 1-66.88-27.712l-39.168-94.592a51.136 51.136 0 0 1 27.712-66.88l35.584-14.72a404.672 404.672 0 0 1 0.128-114.304l-35.712-14.848c-12.672-5.248-22.464-15.104-27.712-27.712s-5.248-26.56 0-39.232l39.168-94.592a52.032 52.032 0 0 1 66.88-27.712l35.712 14.848A403.392 403.392 0 0 1 265.6 184.832l-14.72-35.584a51.136 51.136 0 0 1 27.712-66.88L373.184 43.2a52.096 52.096 0 0 1 66.88 27.712l14.72 35.648a407.04 407.04 0 0 1 114.304 0.128l14.784-35.776a52.096 52.096 0 0 1 66.944-27.712l94.592 39.168a51.008 51.008 0 0 1 27.712 66.88l-14.784 35.712a404.48 404.48 0 0 1 80.896 80.704l35.584-14.72a52.096 52.096 0 0 1 66.88 27.712l39.168 94.592a51.264 51.264 0 0 1-27.712 66.88l-35.584 14.72c5.376 37.888 5.312 76.16-0.128 114.304l35.712 14.784a51.2 51.2 0 0 1 27.712 66.88l-39.168 94.592a51.008 51.008 0 0 1-47.296 31.616 51.392 51.392 0 0 1-19.584-3.904l-35.712-14.784a404.8 404.8 0 0 1-80.704 80.96l14.72 35.584a51.136 51.136 0 0 1-27.712 66.88l-94.592 39.168a49.92 49.92 0 0 1-19.52 3.904z m-30.592-124.992l30.592 73.728 94.592-39.168-30.592-73.728 17.408-11.712a356.928 356.928 0 0 0 96.256-96.512l11.712-17.344 73.92 30.592 39.168-94.592-73.92-30.592 3.968-20.544a354.944 354.944 0 0 0 0.128-136.256l-3.968-20.544 73.728-30.528-39.168-94.592-73.728 30.592-11.712-17.344a355.84 355.84 0 0 0-96.448-96.256l-17.344-11.712 30.592-73.92-94.592-39.168-30.592 73.92-20.544-4.032a358.784 358.784 0 0 0-136.256-0.128l-20.544 4.032-30.528-73.728-94.592 39.168 30.528 73.728-17.344 11.712a355.84 355.84 0 0 0-96.256 96.448l-11.712 17.344-73.856-30.656-39.168 94.592 73.92 30.592-4.032 20.544a354.944 354.944 0 0 0-0.128 136.256l3.968 20.544-73.728 30.528 39.168 94.592 73.728-30.528 11.712 17.344a355.84 355.84 0 0 0 96.448 96.256l17.344 11.712-30.592 73.92 94.592 39.168 30.592-73.856 20.544 3.968a358.784 358.784 0 0 0 136.256 0.128l20.608-3.968z"  ></path><path d="M512.128 768a255.296 255.296 0 0 1-236.544-158.08A256.256 256.256 0 0 1 511.936 256c103.936 0 196.8 62.016 236.544 158.08a256.256 256.256 0 0 1-236.352 353.984z m-0.256-460.8a205.056 205.056 0 0 0-189.056 283.136 204.288 204.288 0 0 0 267.456 110.848 204.992 204.992 0 0 0 110.848-267.52A204.288 204.288 0 0 0 511.872 307.2z"  ></path></symbol><symbol id="icon-code" viewBox="0 0 1024 1024"><path d="M185.2 617.3l125.9 125.9c3.4 3.4 8.6 3.4 12 0s3.4-8.6 0-12L202.9 611.6 323.1 492c3.4-3.4 3.4-8.6 0-12s-8.6-3.4-12 0L184.6 605.3c-1.7 1.7-2.3 4-2.3 6.3s1.2 4.6 2.9 5.7z"  ></path><path d="M361.9 818.5c9.8 5.6 22.4 1.4 28-8.4l237.6-448.7c4.2-11.2 0-22.4-9.8-28s-22.4-1.4-28 8.4L352.1 790.5c-4.2 11.2 0 22.4 9.8 28z"  ></path><path d="M693.4 653.4c3.7 3.7 9.3 3.7 13 0l136.1-136.1c1.9-1.9 2.5-4.3 2.5-6.8s-0.6-5-2.5-6.8L706.4 367.5c-3.7-3.7-9.3-3.7-13 0s-3.7 9.3 0 13l130 130-130 130c-3.7 3.6-3.7 9.2 0 12.9z"  ></path><path d="M917.4 123.2H106.2c-23.1 0-42 18.2-42 41.3v693c0 22.4 18.9 41.3 42 41.3h811.2c23.1 0 42-18.2 40-38.3v-693c1.9-25.4-16.9-44.3-40-44.3z m-30.8 723.3l-757.8 6c-9.3 0-16.8-7.5-16.8-16.8V305.8c0-10.2 8.3-18.4 18.4-18.4h757.8c10.9 0 19.8 8.9 19.8 19.8l3 514.9c0 13.5-10.9 24.4-24.4 24.4z m-486.7-682c23.1 0 42 18.9 42 41.3S423 247 399.9 247s-42-18.2-42-41.3c0-22.3 18.9-41.2 42-41.2z m-125.9 0c23.1 0 42 18.9 42 41.3S297.1 247 274 247s-42-18.2-42-41.3c0-22.3 18.9-41.2 42-41.2z m-125.9 0c23.1 0 42 18.9 42 41.3s-18.9 41.3-42 41.3-42-18.2-42-41.3c0.1-22.4 19-41.3 42-41.3z"  ></path></symbol></svg>